<svg width="93" height="93" viewBox="0 0 93 93" fill="none" xmlns="http://www.w3.org/2000/svg">
<path d="M70.3659 53.3492V83.1344C70.3659 85.1075 68.7699 86.7161 66.7842 86.7161H26.5554C24.5823 86.7161 22.9736 85.1201 22.9736 83.1344V53.3492C37.3258 63.0514 53.1232 63.0514 70.3659 53.3492Z" fill="#FF003B"/>
<path d="M34.8373 75.4682C34.3975 75.2922 33.8068 75.1163 33.103 74.9529C32.5375 74.8272 32.1102 74.7141 31.8086 74.601C31.5069 74.4879 31.243 74.3371 31.0419 74.1486C30.8409 73.9601 30.7529 73.7213 30.7529 73.4196C30.7529 72.9672 30.954 72.6153 31.3813 72.364C31.8086 72.1001 32.3867 71.9744 33.0779 71.9744C33.8194 71.9744 34.5357 72.0875 35.2269 72.3388C35.3275 72.3765 35.4155 72.4017 35.4783 72.4017C35.6668 72.4017 35.8176 72.3263 35.9433 72.188C36.0564 72.0498 36.1192 71.899 36.1192 71.7356C36.1192 71.4214 35.9684 71.2078 35.6794 71.1072C34.875 70.8056 33.9576 70.6548 32.9522 70.6548C32.1982 70.6548 31.5446 70.7805 31.0168 71.0318C30.4764 71.2832 30.0617 71.6351 29.7852 72.0624C29.5087 72.4896 29.3705 72.9798 29.3705 73.5076C29.3705 74.1109 29.5464 74.6136 29.8857 74.978C30.2125 75.3425 30.6146 75.6064 31.0796 75.7949C31.5321 75.9709 32.1102 76.1468 32.8642 76.3479C33.4298 76.4987 33.8445 76.6118 34.1336 76.7124C34.4226 76.8129 34.6614 76.9511 34.8625 77.1271C35.051 77.2905 35.139 77.4915 35.139 77.7429C35.139 78.7357 34.3975 79.2133 32.8642 79.2133C31.9342 79.2133 31.0419 79.0373 30.2376 78.6729C30.1496 78.6352 30.0491 78.6101 29.9486 78.6101C29.76 78.6101 29.5967 78.6855 29.4836 78.8111C29.3705 78.9368 29.3076 79.1002 29.3076 79.2636C29.3076 79.4018 29.3453 79.5275 29.4333 79.6406C29.5087 79.7537 29.6218 79.8417 29.7475 79.8919C30.7529 80.3192 31.8463 80.5455 33.0025 80.5455C33.6937 80.5455 34.3095 80.4324 34.8499 80.1936C35.3903 79.9548 35.8176 79.6406 36.1067 79.2259C36.4083 78.8111 36.5591 78.3336 36.5591 77.8057C36.5591 77.1774 36.3957 76.6621 36.069 76.2851C35.6794 75.9206 35.2898 75.6441 34.8373 75.4682Z" fill="white"/>
<path d="M43.9615 70.7804H37.2253C37.0368 70.7804 36.886 70.8432 36.7603 70.9815C36.6346 71.1072 36.5718 71.2705 36.5718 71.459C36.5718 71.6476 36.6346 71.7984 36.7603 71.924C36.886 72.0497 37.0493 72.1126 37.2253 72.1126H39.9022V79.7788C39.9022 79.9673 39.965 80.1432 40.1033 80.2689C40.2289 80.4072 40.4049 80.47 40.5934 80.47C40.7945 80.47 40.9579 80.3946 41.0961 80.2689C41.2343 80.1307 41.3097 79.9673 41.3097 79.7788V72.1126H43.9741C44.1626 72.1126 44.3134 72.0497 44.4516 71.924C44.5773 71.7984 44.6527 71.635 44.6527 71.459C44.6527 71.2831 44.5899 71.1072 44.4516 70.9815C44.3134 70.8432 44.15 70.7804 43.9615 70.7804Z" fill="white"/>
<path d="M52.4193 71.2706C51.7029 70.8433 50.8483 70.6296 49.8932 70.6296C48.9381 70.6296 48.0835 70.8433 47.3546 71.2706C46.6256 71.6979 46.0601 72.2886 45.6705 73.03C45.2809 73.7715 45.0673 74.6261 45.0547 75.5938C45.0798 76.549 45.2809 77.4161 45.6705 78.145C46.0601 78.8865 46.6256 79.4772 47.3546 79.9045C48.0835 80.3318 48.9381 80.5454 49.8932 80.5454C50.8483 80.5454 51.7029 80.3318 52.4193 79.9045C53.1356 79.4772 53.7012 78.8865 54.1033 78.145C54.5055 77.4036 54.7066 76.5364 54.7317 75.5938C54.7191 74.6513 54.5055 73.7841 54.1033 73.0426C53.7012 72.2886 53.1356 71.6979 52.4193 71.2706ZM49.8932 79.2007C49.1769 79.2007 48.561 79.0373 48.0583 78.7232C47.5431 78.409 47.1535 77.9817 46.877 77.4287C46.6005 76.8883 46.4623 76.2599 46.4623 75.5813C46.4623 74.9026 46.6005 74.2617 46.877 73.7213C47.1409 73.1809 47.5431 72.7536 48.0583 72.4394C48.5736 72.1252 49.1894 71.9618 49.8932 71.9618C50.597 71.9618 51.2128 72.1252 51.7281 72.4394C52.2433 72.7536 52.6455 73.1809 52.9094 73.7213C53.1859 74.2617 53.3242 74.89 53.3242 75.5813C53.3242 76.2599 53.1859 76.8883 52.9094 77.4413C52.6329 77.9817 52.2433 78.4215 51.7281 78.7357C51.2128 79.0499 50.597 79.2007 49.8932 79.2007Z" fill="white"/>
<path d="M63.7429 72.3639C63.5041 71.8989 63.0894 71.5093 62.5364 71.2203C61.9834 70.9312 61.2671 70.7804 60.3999 70.7804H57.3083C57.1072 70.7804 56.9438 70.8558 56.8056 70.994C56.6673 71.1323 56.6045 71.2957 56.6045 71.4967V79.7788C56.6045 79.9799 56.6673 80.1432 56.8056 80.2689C56.9312 80.4072 57.1072 80.47 57.2957 80.47C57.4968 80.47 57.6602 80.3946 57.7984 80.2689C57.9367 80.1307 58.0121 79.9673 58.0121 79.7788V76.9762H60.3873C61.2545 76.9762 61.9708 76.8254 62.5238 76.5363C63.0768 76.2347 63.479 75.8577 63.7303 75.3927C63.9691 74.9277 64.0948 74.425 64.0948 73.8846C64.0948 73.3316 63.9817 72.8289 63.7429 72.3639ZM62.6872 73.872C62.6872 74.3747 62.5112 74.7895 62.1594 75.1162C61.7949 75.4555 61.1665 75.6189 60.2742 75.6189H58.0246V72.1251H60.2742C61.1665 72.1251 61.7949 72.2885 62.1594 72.6278C62.5112 72.9546 62.6872 73.3693 62.6872 73.872Z" fill="white"/>
<path opacity="0.1" d="M66.7214 56.6546V65.4393C66.7214 74.5131 59.3694 81.8526 50.3082 81.8526H24.2305V83.1345C24.2305 84.4164 25.2736 85.4595 26.5555 85.4595H66.7968C68.0787 85.4595 69.1218 84.4164 69.1218 83.1345V55.4607C68.3175 55.888 67.5132 56.265 66.7214 56.6546Z" fill="black"/>
<path opacity="0.1" d="M70.3659 53.3492V58.3386C68.2672 61.2165 66.8847 64.6224 66.4826 68.1664C66.3317 69.5488 66.2438 71.1072 65.1881 72.0121C63.8182 73.1934 61.644 72.5776 60.0103 73.3317C57.7732 74.3496 57.4088 77.3156 56.064 79.3641C54.38 81.9279 51.1501 82.971 48.1088 83.3857C45.0674 83.8005 41.913 83.7879 39.0853 84.9692C38.1176 85.3714 37.2001 85.9746 36.4209 86.7161H26.5554C24.5823 86.7161 22.9736 85.1075 22.9736 83.1344V53.3492C37.3258 63.0514 53.1232 63.0514 70.3659 53.3492Z" fill="white"/>
<path opacity="0.1" d="M52.6708 59.9849C49.7803 61.3673 47.1411 63.4284 45.5827 66.231C44.8035 67.6134 44.2882 69.1718 43.2326 70.3657C40.5934 73.3317 35.7423 72.8667 32.3867 74.9906C30.2251 76.373 28.8804 78.698 27.875 81.0482C27.0958 82.883 26.48 84.7933 25.6003 86.5779C24.0921 86.1757 22.9736 84.7807 22.9736 83.1344V53.3492C32.2611 59.633 42.1643 61.8449 52.6708 59.9849Z" fill="white"/>
<path d="M67.9276 15.081C56.2021 3.35548 37.1245 3.35548 25.4115 15.081C13.6985 26.8066 13.686 45.8841 25.4115 57.5971C31.268 63.4536 38.9719 66.3944 46.6758 66.3944C54.3798 66.3944 62.0711 63.4662 67.9402 57.5971C79.6531 45.8716 79.6531 26.794 67.9276 15.081ZM62.6995 20.3091C70.6422 28.2518 71.4214 40.6686 65.0873 49.5162L33.4925 17.9213C37.4261 15.1062 42.0384 13.6735 46.6758 13.6735C52.4821 13.686 58.2757 15.8853 62.6995 20.3091ZM30.6396 52.369C22.6969 44.4263 21.9177 32.0095 28.2518 23.162L59.8466 54.7443C50.9991 61.0783 38.5949 60.3117 30.6396 52.369Z" fill="#FF003B"/>
<path opacity="0.1" d="M67.9278 15.081C61.7446 8.89779 53.5254 5.98212 45.4067 6.30887C52.6708 6.61049 59.8594 9.52617 65.4017 15.081C77.1273 26.794 77.1273 45.8716 65.4017 57.5971C59.8594 63.1394 52.6834 66.0677 45.4067 66.3693C45.8215 66.3819 46.2488 66.407 46.6509 66.407C54.3423 66.407 62.0588 63.4662 67.9153 57.6097C79.6534 45.8716 79.6534 26.794 67.9278 15.081Z" fill="black"/>
<path opacity="0.1" d="M67.9274 15.0811C56.2019 3.3556 37.1243 3.3556 25.4113 15.0811C13.6858 26.8067 13.6858 45.8717 25.4113 57.5972C31.0667 63.2526 38.469 66.1934 45.909 66.382C48.0204 64.2329 49.629 61.6063 50.2449 58.7032C43.3076 59.8091 35.9681 57.6978 30.6395 52.3691C22.6967 44.4264 21.9176 32.0097 28.2516 23.1621L54.1282 49.0387C54.543 48.8251 54.9703 48.5988 55.3599 48.3098C57.157 47.0405 57.9362 44.904 58.2253 42.667L33.4923 17.9214C37.4259 15.1063 42.0508 13.6736 46.6631 13.6736C52.4693 13.6736 58.2755 15.8729 62.6993 20.2967C63.8555 21.4529 64.8735 22.7097 65.703 24.0293C67.5881 22.3955 69.4984 20.8245 71.4463 19.2913C70.4284 17.8209 69.247 16.4007 67.9274 15.0811Z" fill="white"/>
<path opacity="0.1" d="M25.4116 15.081C14.1259 26.3667 13.6986 44.4389 24.1297 56.2273C25.8389 54.2919 27.2842 52.1051 28.3901 49.7424C22.6216 41.8625 22.5839 31.0796 28.2644 23.1494L34.234 29.119C36.735 28.3147 38.9846 27.0454 41.0708 25.4996L33.4925 17.9213C37.4262 15.1062 42.0511 13.6735 46.6634 13.6735C48.2971 13.6735 49.9184 13.8369 51.5144 14.2013C53.0477 12.0774 54.5558 9.90321 56.1519 7.81699C45.6957 4.36091 33.7062 6.77388 25.4116 15.081Z" fill="white"/>
<path d="M33.4422 30.8911V43.6221H7.94261C7.02518 43.6221 6.28369 42.8806 6.28369 41.9631V32.55C6.28369 31.6326 7.02518 30.8911 7.94261 30.8911H33.4422Z" fill="#FF9F3F"/>
<path d="M33.4424 30.8911H83.9012V43.6221H33.4424V30.8911Z" fill="#E6E6E6"/>
<path d="M31.7837 30.8911H35.1015V43.6221H31.7837V30.8911Z" fill="#F15A24"/>
<path opacity="0.05" d="M33.4424 39.2987H83.9012V43.6219H33.4424V39.2987Z" fill="black"/>
<path opacity="0.05" d="M33.4422 39.2987V43.6219H7.94261C7.02518 43.6219 6.28369 42.8805 6.28369 41.963V39.2987H33.4422Z" fill="black"/>
<path opacity="0.1" d="M83.901 30.8911V39.5125C78.874 40.2288 73.7213 40.0906 68.7571 39.0475C65.5398 38.3814 62.2471 37.3383 59.0549 38.0421C56.089 38.683 53.5629 40.7566 50.5718 41.3348C45.3563 42.3653 40.1282 38.6704 34.8372 39.4119C31.5319 39.8769 28.6414 42.0637 25.3361 42.6041C22.8854 43.0188 20.3719 42.5161 17.9338 41.9883C15.4957 41.473 12.9822 40.9452 10.5315 41.3222C9.13653 41.5484 7.7541 42.1139 6.66072 43.0062C6.4345 42.7423 6.28369 42.3653 6.28369 41.9631V32.5375C6.28369 31.6326 7.02518 30.8785 7.94261 30.8785H83.901V30.8911Z" fill="white"/>
<path opacity="0.1" d="M72.7538 30.8911C67.0104 33.2035 61.3299 35.5662 55.2723 34.9253C52.4949 34.6488 49.7928 33.7314 46.9903 33.744C42.1769 33.7942 37.3007 36.5968 32.7638 35.0007C31.0797 34.41 29.5339 33.2287 27.7619 33.2412C25.462 33.2538 23.6774 35.2269 21.5158 36.0187C18.022 37.3257 14.2015 35.4783 10.4689 35.4783C9.01109 35.4783 7.59095 35.7925 6.25879 36.358V32.55C6.25879 31.6452 7.00028 30.8911 7.91771 30.8911H72.7538Z" fill="white"/>
<path d="M83.6625 44.0493C83.3357 43.9739 83.0216 43.6723 82.9964 43.2827C82.9587 42.6794 83.562 42.2898 83.7253 41.7243C83.8887 41.1713 83.6122 40.5681 83.2729 40.1157C82.9461 39.6632 82.544 39.2485 82.4057 38.683C82.2675 38.1174 82.5943 37.3634 83.097 37.4136C83.5117 36.6596 83.2226 35.629 82.7702 34.8875C82.3178 34.1461 81.7397 33.4925 81.526 32.6128C81.3124 31.7331 81.7522 30.5769 82.5314 30.5894C82.8582 30.602 83.1598 30.8157 83.4866 30.8031C84.1526 30.7654 84.6051 29.8102 85.2711 29.8731C85.6482 29.9108 85.9498 30.2752 86.0755 30.69C86.2011 31.1047 86.176 31.5571 86.1634 31.997C86.0755 33.9073 85.9875 35.805 85.8995 37.7152C85.8744 38.2054 85.8618 38.7207 86.0252 39.1857C86.1634 39.5627 86.4148 39.8643 86.5782 40.2288C86.7416 40.5932 86.7792 41.0834 86.5153 41.3598C86.2011 41.6992 85.5979 41.5232 85.334 41.9254C85.1706 42.1642 85.2083 42.5035 85.2837 42.7925C85.3466 43.0816 85.4345 43.3832 85.3591 43.6723C85.2209 44.2378 84.027 44.1373 83.6625 44.0493Z" fill="#343434"/>
<path d="M28.2549 23.1653L33.4883 17.9319L65.0754 49.519L59.842 54.7524L28.2549 23.1653Z" fill="#FF003B"/>
<path opacity="0.1" d="M28.2642 23.1494L54.1408 49.026C54.5555 48.8123 54.9828 48.5861 55.3724 48.2971C57.1696 47.0278 57.9488 44.8913 58.2378 42.6542L33.4923 17.9213L28.2642 23.1494Z" fill="white"/>
<path opacity="0.1" d="M28.2642 23.1494L34.2338 29.119C36.7347 28.3146 38.9843 27.0453 41.0705 25.4995L33.4923 17.9213L28.2642 23.1494Z" fill="white"/>
</svg>
